# xmcd CD database file
#
# Track frame offsets:
#	150
#	16185
#	39002
#	64549
#	81083
#	97175
#	121158
#	136719
#	151800
#	187464
#	232204
#
# Disc length: 3479 seconds
#
# Revision: 0
# Processed by: cddbd v1.4PL0 Copyright (c) Steve Scherf et al.
# Submitted via: CDex 1.50beta9
#
DISCID=860d950b
DTITLE=Lee Konitz - A portrait of Lee Konitz
DYEAR=1998
DGENRE=Jazz
TTITLE0=Hairy Canary
TTITLE1=Duende
TTITLE2=Spinning
TTITLE3=Hi Beck
TTITLE4=Skylark
TTITLE5=Handful of stars
TTITLE6=Autumn Nocturn
TTITLE7=The Gypsy
TTITLE8=Anthropology
TTITLE9=Ask me now
TTITLE10=East of the sun
EXTD=YEAR: 1998
EXTT0=
EXTT1=
EXTT2=
EXTT3=
EXTT4=
EXTT5=
EXTT6=
EXTT7=
EXTT8=
EXTT9=
EXTT10=
PLAYORDER=
